<?xml version="1.0" standalone="no"?>
<!DOCTYPE svg PUBLIC "-//W3C//DTD SVG 20010904//EN"
 "http://www.w3.org/TR/2001/REC-SVG-20010904/DTD/svg10.dtd">
<svg version="1.0" xmlns="http://www.w3.org/2000/svg"
 width="242.000000pt" height="242.000000pt" viewBox="0 0 242.000000 242.000000"
 preserveAspectRatio="xMidYMid meet">
<metadata>
Created by potrace 1.11, written by Peter Selinger 2001-2013
</metadata>
<g transform="translate(0.000000,242.000000) scale(0.100000,-0.100000)"
fill="#000000" stroke="none">
<path d="M1322 2258 c-6 -7 -19 -40 -30 -73 -14 -45 -24 -60 -38 -60 -16 0
-19 -7 -17 -48 2 -26 0 -46 -5 -44 -4 2 -34 17 -67 33 -33 16 -83 52 -111 80
l-52 52 -6 -29 c-6 -31 1 -83 15 -111 8 -14 1 -17 -48 -20 -52 -3 -58 -1 -89
30 -40 40 -75 41 -81 2 -5 -33 -16 -38 -72 -32 -40 4 -52 1 -70 -17 -30 -30
-16 -46 19 -21 35 25 62 25 83 2 24 -26 22 -30 -21 -42 -57 -15 -77 -41 -74
-100 1 -27 -3 -52 -8 -55 -17 -11 -63 -18 -122 -19 -52 -1 -58 -3 -58 -22 0
-27 -17 -41 -55 -46 -23 -2 -29 -7 -27 -23 6 -54 4 -77 -11 -93 -22 -24 -13
-32 35 -32 45 0 93 -22 102 -46 5 -14 0 -15 -41 -11 -27 3 -88 19 -136 37 -49
17 -94 29 -100 27 -6 -2 19 -27 56 -57 37 -29 67 -57 67 -61 0 -3 -13 -12 -30
-19 -36 -15 -100 -76 -100 -95 0 -11 7 -11 32 4 40 23 89 38 145 45 45 6 72
-10 74 -42 1 -9 4 -28 6 -42 3 -14 5 -101 4 -195 -1 -200 8 -272 47 -401 20
-64 30 -79 104 -155 119 -122 215 -193 333 -248 105 -50 216 -70 245 -45 9 7
53 25 99 40 110 35 271 118 373 191 106 75 272 238 264 259 -3 8 5 41 18 72
42 102 150 455 141 464 -2 2 -6 35 -10 73 -4 47 -16 91 -37 133 -18 38 -30 80
-31 105 0 46 -22 85 -74 133 l-34 31 51 22 c55 24 120 76 120 96 0 17 -50 29
-63 16 -19 -19 -27 -12 -27 27 0 29 -8 48 -33 78 -18 21 -44 55 -57 74 -21 30
-25 32 -28 15 -5 -28 -42 -65 -64 -65 -11 0 -17 3 -15 8 3 4 8 30 11 59 5 49
5 51 -17 46 -37 -10 -149 -62 -198 -93 -47 -31 -65 -37 -54 -21 6 11 -34 43
-45 36 -4 -3 -13 1 -19 9 -9 11 -5 20 19 45 18 17 38 31 47 31 13 0 13 3 3 15
-7 8 -10 29 -8 45 6 41 -6 46 -27 12 -38 -59 -65 -72 -119 -59 -21 6 -33 3
-47 -9 -17 -15 -19 -15 -25 0 -3 8 -4 38 -2 66 5 55 5 55 -10 38z"/>
</g>
</svg>
