<svg style="position: absolute; width: 0; height: 0; overflow: hidden;" version="1.1" xmlns="http://www.w3.org/2000/svg" xmlns:xlink="http://www.w3.org/1999/xlink">
<defs>
<symbol id="icon-twitter" viewBox="0 0 32 32">
<title>twitter</title>
<path class="path1" d="M32 7.075c-1.175 0.525-2.444 0.875-3.769 1.031 1.356-0.813 2.394-2.1 2.887-3.631-1.269 0.75-2.675 1.3-4.169 1.594-1.2-1.275-2.906-2.069-4.794-2.069-3.625 0-6.563 2.938-6.563 6.563 0 0.512 0.056 1.012 0.169 1.494-5.456-0.275-10.294-2.888-13.531-6.862-0.563 0.969-0.887 2.1-0.887 3.3 0 2.275 1.156 4.287 2.919 5.463-1.075-0.031-2.087-0.331-2.975-0.819 0 0.025 0 0.056 0 0.081 0 3.181 2.263 5.838 5.269 6.437-0.55 0.15-1.131 0.231-1.731 0.231-0.425 0-0.831-0.044-1.237-0.119 0.838 2.606 3.263 4.506 6.131 4.563-2.25 1.762-5.075 2.813-8.156 2.813-0.531 0-1.050-0.031-1.569-0.094 2.913 1.869 6.362 2.95 10.069 2.95 12.075 0 18.681-10.006 18.681-18.681 0-0.287-0.006-0.569-0.019-0.85 1.281-0.919 2.394-2.075 3.275-3.394z"></path>
</symbol>
<symbol id="icon-github" viewBox="0 0 32 32">
<title>github</title>
<path class="path1" d="M16 0.395c-8.836 0-16 7.163-16 16 0 7.069 4.585 13.067 10.942 15.182 0.8 0.148 1.094-0.347 1.094-0.77 0-0.381-0.015-1.642-0.022-2.979-4.452 0.968-5.391-1.888-5.391-1.888-0.728-1.849-1.776-2.341-1.776-2.341-1.452-0.993 0.11-0.973 0.11-0.973 1.606 0.113 2.452 1.649 2.452 1.649 1.427 2.446 3.743 1.739 4.656 1.33 0.143-1.034 0.558-1.74 1.016-2.14-3.554-0.404-7.29-1.777-7.29-7.907 0-1.747 0.625-3.174 1.649-4.295-0.166-0.403-0.714-2.030 0.155-4.234 0 0 1.344-0.43 4.401 1.64 1.276-0.355 2.645-0.532 4.005-0.539 1.359 0.006 2.729 0.184 4.008 0.539 3.054-2.070 4.395-1.64 4.395-1.64 0.871 2.204 0.323 3.831 0.157 4.234 1.026 1.12 1.647 2.548 1.647 4.295 0 6.145-3.743 7.498-7.306 7.895 0.574 0.497 1.085 1.47 1.085 2.963 0 2.141-0.019 3.864-0.019 4.391 0 0.426 0.288 0.925 1.099 0.768 6.354-2.118 10.933-8.113 10.933-15.18 0-8.837-7.164-16-16-16z"></path>
</symbol>
<symbol id="icon-linkedin" viewBox="0 0 32 32">
<title>linkedin</title>
<path class="path1" d="M 29,0 3,0 C 1.35,0 0,1.35 0,3 l 0,26 c 0,1.65 1.35,3 3,3 l 26,0 c 1.65,0 3,-1.35 3,-3 L 32,3 C 32,1.35 30.65,0 29,0 z M 11,26 7,26 7,12 11,12 z M 9,10 C 7.894,10 7,9.106 7,8 7,6.894 7.894,6 9,6 c 1.106,0 2,0.894 2,2 0,1.106 -0.894,2 -2,2 z m 18,16 -4,0 0,-8 c 0,-1.106 -0.894,-2 -2,-2 -1.106,0 -1.862818,0.902541 -2,2 l 0,8 -4,0 0,-14 4,0 0,2.481 C 19.825,13.35 21.087,12 22.5,12 c 2.488,0 4.5,2.238 4.5,5 z"></path>
</symbol>
<symbol id="icon-codepen" viewBox="0 0 32 32">
<title>codepen</title>
<path class="path1" d="M29.555 11.501l-14-9.333c-0.336-0.224-0.774-0.224-1.109 0l-14 9.333c-0.278 0.185-0.445 0.498-0.445 0.832v9.333c0 0.334 0.167 0.647 0.445 0.832l14 9.333c0.168 0.112 0.361 0.168 0.555 0.168s0.387-0.056 0.555-0.168l14-9.333c0.278-0.185 0.445-0.498 0.445-0.832v-9.333c0-0.334-0.167-0.647-0.445-0.832zM15 20.465l-5.197-3.465 5.197-3.465 5.197 3.465-5.197 3.465zM16 11.798v-6.93l11.197 7.465-5.197 3.465-6-4zM14 11.798l-6 4-5.197-3.465 11.197-7.465v6.93zM6.197 17l-4.197 2.798v-5.596l4.197 2.798zM8 18.202l6 4v6.93l-11.197-7.465 5.197-3.465zM16 22.202l6-4 5.197 3.465-11.197 7.465v-6.93zM23.803 17l4.197-2.798v5.596l-4.197-2.798z"></path>
</symbol>
<symbol id="icon-phone" viewBox="0 0 32 32">
<title>phone</title>
<path class="path1" d="m 5.6401101,26.049444 c 1.8842259,3.010232 5.0983599,3.060514 6.1594289,2.866579 0.316043,-0.01551 5.041195,-0.563477 10.745841,-8.107125 C 27.120575,14.740645 26.897766,9.0710368 26.759391,8.0290986 26.621015,6.9871603 25.9399,4.4533341 22.050955,3.1142605 21.550945,2.9420967 20.658379,3.0076202 20.507176,3.2662711 c -0.09382,0.091984 -2.265429,5.4964183 -2.322818,5.6630859 -0.05742,0.1666589 -0.05921,0.3524692 -0.04192,0.4827118 0.05372,0.2049288 0.274117,0.4672468 0.605623,0.7678212 0.406191,0.264149 0.756826,0.509169 1.163022,0.773319 0.425319,0.208594 0.831512,0.472741 1.182147,0.717761 0.350636,0.24502 0.571029,0.507339 0.624763,0.712257 0.06919,0.520971 -0.04295,2.470941 -2.826488,5.862519 -2.783543,3.391578 -4.206242,4.455284 -4.355612,4.528138 -0.149375,0.07285 -0.298744,0.145706 -0.354301,0.126576 -0.204929,0.05372 -0.463588,-0.09746 -0.869774,-0.361628 -0.350635,-0.245021 -1.6384,-1.558438 -2.044591,-1.822586 -0.406194,-0.264154 -0.683974,-0.3598 -0.944461,-0.325202 -0.130241,0.0173 -0.279613,0.09015 -0.4481149,0.218561 -0.168505,0.128405 -4.5896337,3.763979 -4.6470234,3.930648 -0.1512038,0.25865 0.1383782,1.041937 0.412497,1.509183"></path>
</symbol>
<symbol id="icon-link" viewBox="0 0 32 32">
<title>link</title>
<path class="path1" d="m 15.858985,4.080607 -3.644676,3.644676 c -0.314698,0.314698 -0.599781,0.647937 -0.855248,0.996344 -0.05562,0.07585 -0.105942,0.154581 -0.158914,0.23163 1.760578,-0.476743 3.629507,-0.448813 5.376601,0.08572 l 0.298085,-0.298084 2.009543,-2.009544 c 1.762986,-1.762986 4.621517,-1.762504 6.384503,4.71e-4 1.762745,1.762745 1.762986,4.621517 2.41e-4,6.384262 l -2.291256,2.291255 -0.471445,0.471446 -0.458685,0.458685 -0.0015,0.0015 -0.763511,0.763511 c -0.795775,0.795776 -1.814512,1.230864 -2.85516,1.308395 0,0 0,0.0015 0,0.0015 -4.71e-4,-4.71e-4 -7.06e-4,-2.41e-4 -0.0012,-2.41e-4 -0.218628,0.01926 -0.406436,0.02023 -0.566794,0.01396 -0.352501,-0.01541 -0.557164,-0.07031 -0.557164,-0.07031 -2.4e-4,-7.06e-4 0,-9.81e-4 -2.4e-4,-0.0012 -4.71e-4,0 -9.81e-4,0 -0.0012,-2.41e-4 -0.880048,-0.155303 -1.722775,-0.572332 -2.402495,-1.252052 -0.66118,-0.66118 -1.074357,-1.475977 -1.240013,-2.32978 -0.0046,-0.02432 -0.0075,-0.04888 -0.0118,-0.07296 -0.772661,0.06332 -1.527745,0.387895 -2.117895,0.978045 l -1.213768,1.213768 c 0.415826,1.053891 1.047149,2.042531 1.899508,2.894889 0.851877,0.851877 1.839553,1.484645 2.893203,1.900711 0.193827,0.07633 0.390063,0.14495 0.588224,0.20683 0.165415,0.05129 0.331794,0.09968 0.500339,0.141097 0.01276,0.0031 0.02287,0.0055 0.03419,0.0082 0.03034,0.0077 0.06044,0.01276 0.09101,0.02023 1.746854,0.402342 3.594354,0.248484 5.263676,-0.461092 0.205385,-0.0874 0.408843,-0.181548 0.607968,-0.285805 0.01083,-0.0055 0.02167,-0.01108 0.03226,-0.01733 0.03347,-0.0171 0.06573,-0.03636 0.09848,-0.05466 0.08427,-0.04575 0.169027,-0.0915 0.252096,-0.140374 9.81e-4,-9.81e-4 0.0019,-9.81e-4 0.0031,-0.0017 0.605078,-0.358039 1.175725,-0.796739 1.695326,-1.316341 l 3.644676,-3.644675 c 3.330458,-3.330459 3.330218,-8.729934 0,-12.060151 C 24.589073,0.750733 19.189357,0.750251 15.858898,4.080721 z"></path>
<path class="path1" d="m 16.14166,27.919198 3.644675,-3.644676 c 0.31494,-0.314939 0.599781,-0.648418 0.855248,-0.996826 0.05562,-0.07585 0.106424,-0.15458 0.158914,-0.231629 -1.760337,0.476983 -3.629506,0.449294 -5.37636,-0.08548 l -0.298325,0.298325 -2.009543,2.009544 c -1.762986,1.762986 -4.621277,1.762745 -6.384503,-4.7e-4 -1.762986,-1.762986 -1.762986,-4.621036 0,-6.384021 l 2.291255,-2.291256 0.471205,-0.471205 0.458685,-0.458684 0.0017,-0.0017 0.76327,-0.76327 c 0.795535,-0.795534 1.814272,-1.230622 2.85492,-1.308153 l -2.41e-4,-0.0012 c 4.71e-4,0 7.06e-4,2.41e-4 0.0012,2.41e-4 0.218628,-0.01974 0.406435,-0.02071 0.566795,-0.01396 0.35226,0.01469 0.556922,0.07007 0.556922,0.07007 2.41e-4,2.41e-4 2.41e-4,7.06e-4 2.41e-4,0.0012 2.4e-4,-2.41e-4 7.06e-4,-2.41e-4 0.0015,0 0.880049,0.155302 1.723017,0.572091 2.402496,1.25157 0.66118,0.66118 1.074357,1.476459 1.239531,2.32978 0.0051,0.0248 0.0079,0.04888 0.0118,0.07296 0.772901,-0.06308 1.528466,-0.387654 2.118376,-0.977563 L 21.68543,15.108786 C 21.269122,14.054895 20.637558,13.066496 19.7852,12.214138 18.933082,11.36202 17.945646,10.729493 16.891996,10.313426 16.698169,10.237096 16.501934,10.168477 16.303772,10.106597 16.138116,10.055067 15.971497,10.006433 15.803433,9.9655 15.790673,9.9624 15.780323,9.9597 15.769243,9.9568 15.738903,9.9496 15.708563,9.9438 15.678473,9.93682 13.93162,9.534478 12.083639,9.688337 10.414798,10.397913 c -0.205385,0.0874 -0.408603,0.181788 -0.608208,0.285564 -0.01084,0.0055 -0.02143,0.01131 -0.03251,0.0171 -0.03299,0.01758 -0.06525,0.03684 -0.098,0.05514 -0.08451,0.04551 -0.169268,0.09126 -0.252337,0.140616 -0.0012,7.06e-4 -0.0017,0.0012 -0.0027,0.0017 -0.60556,0.357557 -1.175725,0.796257 -1.695808,1.31634 l -3.644194,3.644194 c -3.330459,3.330459 -3.330459,8.729693 0,12.060152 3.3307,3.330699 8.730174,3.33094 12.060633,4.7e-4 z"></path>
</symbol>
<symbol id="icon-mail" viewBox="0 0 32 32">
<title>mail</title>
<path class="path1" d="M 1.316819,6.4559322 V 25.544068 H 30.683181 V 6.4559322 H 1.316819 z M 16,17.621024 3.4479359,7.336923 H 28.551477 L 16,17.621024 z M 12.140085,15.673153 2.1978099,23.819382 V 7.5269236 L 12.140085,15.673153 z M 12.881586,16.28045 16,18.835323 19.118707,16.280155 29.349654,24.663077 H 2.6506392 L 12.881586,16.28045 z m 6.978329,-0.607297 9.942276,-8.1462294 V 23.819382 l -9.942276,-8.146229 z"></path>
</symbol>
<symbol id="icon-facebook" viewBox="0 0 32 32">
<path d="M22.675 0h-21.35c-.732 0-1.325.593-1.325 1.325v21.351c0 .731.593 1.324 1.325 1.324h11.495v-9.294h-3.128v-3.622h3.128v-2.671c0-3.1 1.893-4.788 4.659-4.788 1.325 0 2.463.099 2.795.143v3.24l-1.918.001c-1.504 0-1.795.715-1.795 1.763v2.313h3.587l-.467 3.622h-3.12v9.293h6.116c.73 0 1.323-.593 1.323-1.325v-21.35c0-.732-.593-1.325-1.325-1.325z"></path>
</symbol>                                             
</defs>
</svg>
